<?xml version="1.0" encoding="UTF-8" standalone="no"?>
<!DOCTYPE svg PUBLIC "-//W3C//DTD SVG 1.1//EN" "http://www.w3.org/Graphics/SVG/1.1/DTD/svg11.dtd">
<svg id="sysmap" width="100%" height="100%" viewBox="0 0 720 750" version="1.1" xmlns="http://www.w3.org/2000/svg" xmlns:xlink="http://www.w3.org/1999/xlink" xml:space="preserve" xmlns:serif="http://www.serif.com/" style="fill-rule:evenodd;clip-rule:evenodd;stroke-linecap:round;stroke-linejoin:round;stroke-miterlimit:1.5;">
    <circle cx="47.996" cy="31.227" r="11.227" style="fill:none;stroke:black;stroke-width:0.65px;"/>
    <path d="M25.693,62.622L65.905,123.845L30.392,123.845L70.604,62.622L25.693,62.622Z" style="fill:none;stroke:black;stroke-width:0.65px;"/>
    <path d="M16.296,132.024L16.296,96.482L25.694,62.622" style="fill:none;stroke:black;stroke-width:0.65px;"/>
    <path d="M80,132.024L80,96.482L70.603,62.622" style="fill:none;stroke:black;stroke-width:0.65px;"/>
    <path d="M48.148,62.621L48.148,20.001" style="fill:none;stroke:black;stroke-width:0.65px;"/>
    <path d="M30.392,123.845L38.846,171.375L43.147,221.76" style="fill:none;stroke:black;stroke-width:0.65px;"/>
    <path d="M65.905,123.845L57.451,171.375L53.15,221.76" style="fill:none;stroke:black;stroke-width:0.65px;"/>
    <g>
        <circle cx="685.12" cy="417.25" r="11.184" style="fill:none;stroke:black;stroke-width:0.65px;"/>
        <path d="M662.904,448.524L702.96,509.51L667.584,509.51L707.64,448.524L662.904,448.524Z" style="fill:none;stroke:black;stroke-width:0.65px;"/>
        <path d="M653.543,517.657L653.543,482.253L662.904,448.524" style="fill:none;stroke:black;stroke-width:0.65px;"/>
        <path d="M717,517.657L717,482.253L707.639,448.524" style="fill:none;stroke:black;stroke-width:0.65px;"/>
        <path d="M685.271,448.523L685.271,406.067" style="fill:none;stroke:black;stroke-width:0.65px;"/>
        <path d="M667.584,509.51L676.005,556.856L680.29,607.046" style="fill:none;stroke:black;stroke-width:0.65px;"/>
        <path d="M702.959,509.51L694.538,556.856L690.254,607.046" style="fill:none;stroke:black;stroke-width:0.65px;"/>
    </g>
    <path d="M40,320L660,0" style="fill:none;stroke:black;stroke-width:0.83px;stroke-dasharray:4.17,8.33,0,0;"/>
    <rect x="320" y="320" width="80" height="80" style="fill:none;stroke:black;stroke-width:0.83px;"/>
    <rect x="320" y="490.479" width="80" height="80" style="fill:none;stroke:black;stroke-width:0.83px;"/>
    <rect x="330" y="49.61" width="60" height="60" style="fill:none;stroke:black;stroke-width:0.83px;"/>
    <text x="336.436px" y="92.155px" style="font-family:'Arial-ItalicMT', 'Arial', sans-serif;font-style:italic;font-size:8.333px;">raspberry pi</text>
    <text x="647.21px" y="247.965px" style="font-family:'Arial-ItalicMT', 'Arial', sans-serif;font-style:italic;font-size:8.333px;">human</text>
    <text x="348.41px" y="678.5px" style="font-family:'Arial-ItalicMT', 'Arial', sans-serif;font-style:italic;font-size:8.333px;">human</text>
    <g>
        <text x="348.619px" y="243.13px" style="font-family:'Arial-ItalicMT', 'Arial', sans-serif;font-style:italic;font-size:8.333px;">gdrive</text>
        <text x="346.189px" y="227.994px" style="font-family:'ArialMT', 'Arial', sans-serif;font-size:12.5px;">store</text>
        <circle cx="360" cy="231.049" r="40" style="fill:none;stroke:black;stroke-width:0.83px;"/>
    </g>
    <text x="346.093px" y="77.126px" style="font-family:'ArialMT', 'Arial', sans-serif;font-size:12.5px;">pdac</text>
    <rect x="499.956" y="460" width="60" height="60" style="fill:none;stroke:black;stroke-width:0.83px;"/>
    <rect x="10" y="560" width="60" height="60" style="fill:none;stroke:black;stroke-width:0.83px;"/>
    <rect x="9.956" y="478.946" width="60" height="60" style="fill:none;stroke:black;stroke-width:0.83px;"/>
    <rect x="10" y="400" width="60" height="60" style="fill:none;stroke:black;stroke-width:0.83px;"/>
    <text x="31.025px" y="518.736px" style="font-family:'Arial-ItalicMT', 'Arial', sans-serif;font-style:italic;font-size:8.333px;">lcds</text>
    <text x="20.967px" y="440px" style="font-family:'Arial-ItalicMT', 'Arial', sans-serif;font-style:italic;font-size:8.333px;">projection</text>
    <text x="32.007px" y="503.707px" style="font-family:'ArialMT', 'Arial', sans-serif;font-size:12.5px;">viz</text>
    <text x="32.606px" y="424.971px" style="font-family:'ArialMT', 'Arial', sans-serif;font-size:12.5px;">viz</text>
    <rect x="10" y="641.054" width="60" height="60" style="fill:none;stroke:black;stroke-width:0.83px;stroke-dasharray:0.83,0.83;"/>
    <text x="507.629px" y="498.246px" style="font-family:'Arial-ItalicMT', 'Arial', sans-serif;font-style:italic;font-size:8.333px;">raspberry pi</text>
    <text x="517.286px" y="483.217px" style="font-family:'ArialMT', 'Arial', sans-serif;font-size:12.5px;">pdac</text>
    <text x="30.795px" y="601.063px" style="font-family:'Arial-ItalicMT', 'Arial', sans-serif;font-style:italic;font-size:8.333px;">midi</text>
    <text x="31.951px" y="683.167px" style="font-family:'Arial-ItalicMT', 'Arial', sans-serif;font-style:italic;font-size:8.333px;">osc</text>
    <text x="25.056px" y="586.034px" style="font-family:'ArialMT', 'Arial', sans-serif;font-size:12.5px;">lights</text>
    <text x="22.617px" y="668.138px" style="font-family:'ArialMT', 'Arial', sans-serif;font-size:12.5px;">sound</text>
    <text x="354.666px" y="356.738px" style="font-family:'ArialMT', 'Arial', sans-serif;font-size:12.5px;">AI</text>
    <text x="352.697px" y="525.846px" style="font-family:'ArialMT', 'Arial', sans-serif;font-size:12.5px;">AV</text>
    <text x="687.555px" y="346.76px" style="font-family:'Arial-ItalicMT', 'Arial', sans-serif;font-style:italic;font-size:8.333px;">training</text>
    <text x="645.185px" y="92.934px" style="font-family:'Arial-ItalicMT', 'Arial', sans-serif;font-style:italic;font-size:8.333px;">directus</text>
    <text x="326.703px" y="370.553px" style="font-family:'Arial-ItalicMT', 'Arial', sans-serif;font-style:italic;font-size:8.333px;">machine learning</text>
    <text x="332.701px" y="541.372px" style="font-family:'Arial-ItalicMT', 'Arial', sans-serif;font-style:italic;font-size:8.333px;">touch designer</text>
    <text x="633.615px" y="80px" style="font-family:'ArialMT', 'Arial', sans-serif;font-size:12.5px;">exercises</text>
    <text x="632.89px" y="235.707px" style="font-family:'ArialMT', 'Arial', sans-serif;font-size:12.5px;">directorial</text>
    <text x="333.275px" y="664.401px" style="font-family:'ArialMT', 'Arial', sans-serif;font-size:12.5px;">directorial</text>
    <path d="M362.5,112.527C362.5,111.147 361.38,110.027 360,110.027C358.62,110.027 357.5,111.147 357.5,112.527C357.5,113.906 358.62,115.027 360,115.027C361.38,115.027 362.5,113.906 362.5,112.527Z" style="fill:none;stroke:black;stroke-width:0.83px;stroke-linejoin:miter;stroke-miterlimit:10;"/>
    <path d="M363.75,184.673L360,190.298L356.25,184.673" style="fill:none;stroke:black;stroke-width:0.83px;stroke-linejoin:miter;stroke-miterlimit:10;"/>
    <path d="M360,115.027L360,190.298" style="fill:none;stroke:black;stroke-width:0.83px;"/>
    <path d="M658.304,221.343L661.638,221.343" style="fill:none;stroke:black;stroke-width:0.83px;stroke-linejoin:miter;stroke-miterlimit:10;"/>
    <path d="M652.471,133.614L659.971,122.364L667.471,133.614" style="fill:none;stroke:black;stroke-width:0.83px;stroke-linejoin:miter;stroke-miterlimit:10;"/>
    <path d="M659.971,221.343L659.971,122.364" style="fill:none;stroke:black;stroke-width:0.83px;"/>
    <path d="M358.69,639.583L362.023,639.583" style="fill:none;stroke:black;stroke-width:0.83px;stroke-linejoin:miter;stroke-miterlimit:10;"/>
    <path d="M352.857,582.001L360.357,570.751L367.857,582.001" style="fill:none;stroke:black;stroke-width:0.83px;stroke-linejoin:miter;stroke-miterlimit:10;"/>
    <path d="M360.357,639.583L360.357,570.751" style="fill:none;stroke:black;stroke-width:0.83px;"/>
    <path d="M362.5,273.966C362.5,272.586 361.38,271.466 360,271.466C358.62,271.466 357.5,272.586 357.5,273.966C357.5,275.345 358.62,276.466 360,276.466C361.38,276.466 362.5,275.345 362.5,273.966Z" style="fill:none;stroke:black;stroke-width:0.83px;stroke-linejoin:miter;stroke-miterlimit:10;"/>
    <path d="M363.75,313.624L360,319.249L356.25,313.624" style="fill:none;stroke:black;stroke-width:0.83px;stroke-linejoin:miter;stroke-miterlimit:10;"/>
    <path d="M360,276.466L360,319.249" style="fill:none;stroke:black;stroke-width:0.83px;"/>
    <path d="M362.5,402.917C362.5,401.537 361.38,400.417 360,400.417C358.62,400.417 357.5,401.537 357.5,402.917C357.5,404.296 358.62,405.417 360,405.417C361.38,405.417 362.5,404.296 362.5,402.917Z" style="fill:none;stroke:black;stroke-width:0.83px;stroke-linejoin:miter;stroke-miterlimit:10;"/>
    <path d="M363.75,484.103L360,489.728L356.25,484.103" style="fill:none;stroke:black;stroke-width:0.83px;stroke-linejoin:miter;stroke-miterlimit:10;"/>
    <path d="M360,405.417L360,489.728" style="fill:none;stroke:black;stroke-width:0.83px;"/>
    <text x="676.276px" y="377.725px" style="font-family:'Arial-ItalicMT', 'Arial', sans-serif;font-style:italic;font-size:8.333px;">production</text>
    <text x="40px" y="340px" style="font-family:'Arial-ItalicMT', 'Arial', sans-serif;font-style:italic;font-size:8.333px;">training</text>
    <text x="40px" y="280px" style="font-family:'Arial-ItalicMT', 'Arial', sans-serif;font-style:italic;font-size:8.333px;">collection</text>
    <path d="M0,363.566L7.131,356.434L14.262,363.566L21.394,356.434L28.525,363.566L35.656,356.434L42.787,363.566L49.918,356.434L57.049,363.566L64.181,356.434L71.312,363.566L78.443,356.434L85.574,363.566L92.705,356.434L99.836,363.566" style="fill:none;stroke:black;stroke-width:0.83px;stroke-dasharray:1.67,1.67,0,0;"/>
    <path d="M99.836,363.566L106.968,356.434L114.099,363.566L121.23,356.434L128.361,363.566L135.492,356.434L142.624,363.566L149.755,356.434L156.886,363.566L164.017,356.434L171.148,363.566L178.279,356.434L185.411,363.566L192.542,356.434L199.673,363.566" style="fill:none;stroke:black;stroke-width:0.83px;stroke-dasharray:1.67,1.67,0,0;"/>
    <path d="M200.164,363.566L207.295,356.434L214.426,363.566L221.557,356.434L228.688,363.566L235.819,356.434L242.951,363.566L250.082,356.434L257.213,363.566L264.344,356.434L271.475,363.566L278.606,356.434L285.738,363.566L292.869,356.434L300,363.566" style="fill:none;stroke:black;stroke-width:0.83px;stroke-dasharray:1.67,1.67,0,0;"/>
    <path d="M419.632,363.566L426.764,356.434L433.895,363.566L441.026,356.434L448.157,363.566L455.288,356.434L462.419,363.566L469.551,356.434L476.682,363.566L483.813,356.434L490.944,363.566L498.075,356.434L505.206,363.566L512.338,356.434L519.469,363.566" style="fill:none;stroke:black;stroke-width:0.83px;stroke-dasharray:1.67,1.67,0,0;"/>
    <path d="M519.469,363.566L526.6,356.434L533.731,363.566L540.862,356.434L547.993,363.566L555.125,356.434L562.256,363.566L569.387,356.434L576.518,363.566L583.649,356.434L590.781,363.566L597.912,356.434L605.043,363.566L612.174,356.434L619.305,363.566" style="fill:none;stroke:black;stroke-width:0.83px;stroke-dasharray:1.67,1.67,0,0;"/>
    <path d="M619.796,363.566L626.927,356.434L634.058,363.566L641.189,356.434L648.321,363.566L655.452,356.434L662.583,363.566L669.714,356.434L676.845,363.566L683.976,356.434L691.108,363.566L698.239,356.434L705.37,363.566L712.501,356.434L719.632,363.566" style="fill:none;stroke:black;stroke-width:0.83px;stroke-dasharray:1.67,1.67,0,0;"/>
    <circle cx="660" cy="80" r="40" style="fill:none;stroke:black;stroke-width:0.83px;"/>
    <path d="M396.376,76.25L390.751,80L396.376,83.75" style="fill:none;stroke:black;stroke-width:0.83px;stroke-linejoin:miter;stroke-miterlimit:10;"/>
    <circle cx="617.083" cy="80" r="2.5" style="fill:none;stroke:black;stroke-width:0.83px;stroke-linejoin:miter;stroke-miterlimit:10;"/>
    <path d="M390.751,80L614.583,80" style="fill:none;stroke:black;stroke-width:0.83px;"/>
    <path d="M106.376,76.25L100.751,80L106.376,83.75" style="fill:none;stroke:black;stroke-width:0.83px;stroke-linejoin:miter;stroke-miterlimit:10;"/>
    <path d="M323.624,76.25L329.249,80L323.624,83.75" style="fill:none;stroke:black;stroke-width:0.83px;stroke-linejoin:miter;stroke-miterlimit:10;"/>
    <path d="M100.751,80L329.249,80" style="fill:none;stroke:black;stroke-width:0.83px;"/>
    <path d="M566.332,486.25L560.707,490L566.332,493.75" style="fill:none;stroke:black;stroke-width:0.83px;stroke-linejoin:miter;stroke-miterlimit:10;"/>
    <path d="M643.579,486.25L649.204,490L643.579,493.75" style="fill:none;stroke:black;stroke-width:0.83px;stroke-linejoin:miter;stroke-miterlimit:10;"/>
    <path d="M560.707,490L649.204,490" style="fill:none;stroke:black;stroke-width:0.83px;"/>
    <path d="M407.277,401.055L400.542,400.469L402.592,406.911" style="fill:none;stroke:black;stroke-width:0.83px;stroke-linejoin:miter;stroke-miterlimit:10;"/>
    <path d="M499.24,476.226C500.317,477.088 500.492,478.662 499.63,479.74C498.768,480.817 497.194,480.992 496.116,480.13C495.039,479.268 494.864,477.694 495.726,476.616C496.588,475.539 498.162,475.364 499.24,476.226Z" style="fill:none;stroke:black;stroke-width:0.83px;stroke-linejoin:miter;stroke-miterlimit:10;"/>
    <path d="M400.542,400.469C407.67,406.171 477.673,462.174 495.726,476.616" style="fill:none;stroke:black;stroke-width:0.83px;"/>
    <path d="M77.151,428.108L70.723,430.203L75.129,435.331" style="fill:none;stroke:black;stroke-width:0.83px;stroke-linejoin:miter;stroke-miterlimit:10;"/>
    <path d="M317.821,496.806C319.15,497.178 319.926,498.559 319.554,499.888C319.182,501.216 317.802,501.993 316.473,501.621C315.144,501.249 314.368,499.868 314.74,498.539C315.112,497.211 316.493,496.434 317.821,496.806Z" style="fill:none;stroke:black;stroke-width:0.83px;stroke-linejoin:miter;stroke-miterlimit:10;"/>
    <path d="M70.723,430.203C84.14,433.96 280.091,488.836 314.74,498.539" style="fill:none;stroke:black;stroke-width:0.83px;"/>
    <path d="M75.473,585.073L70.692,589.853L76.943,592.427" style="fill:none;stroke:black;stroke-width:0.83px;stroke-linejoin:miter;stroke-miterlimit:10;"/>
    <path d="M316.65,538.12C318.003,537.85 319.321,538.729 319.591,540.082C319.862,541.435 318.983,542.753 317.63,543.023C316.277,543.294 314.959,542.415 314.688,541.062C314.418,539.709 315.297,538.391 316.65,538.12Z" style="fill:none;stroke:black;stroke-width:0.83px;stroke-linejoin:miter;stroke-miterlimit:10;"/>
    <path d="M70.692,589.853C84.214,587.149 279.781,548.042 314.688,541.062" style="fill:none;stroke:black;stroke-width:0.83px;"/>
    <path d="M76.521,506.508L70.751,510.03L76.221,514.002" style="fill:none;stroke:black;stroke-width:0.83px;stroke-linejoin:miter;stroke-miterlimit:10;"/>
    <path d="M317.186,517.385C318.564,517.441 319.639,518.605 319.584,519.983C319.529,521.362 318.364,522.437 316.986,522.381C315.607,522.326 314.533,521.162 314.588,519.784C314.643,518.405 315.807,517.33 317.186,517.385Z" style="fill:none;stroke:black;stroke-width:0.83px;stroke-linejoin:miter;stroke-miterlimit:10;"/>
    <path d="M70.751,510.03C84.378,510.575 279.422,518.377 314.588,519.784" style="fill:none;stroke:black;stroke-width:0.83px;"/>
    <path d="M74.26,665.039L70.642,670.749L77.305,671.893" style="fill:none;stroke:black;stroke-width:0.83px;stroke-linejoin:miter;stroke-miterlimit:10;"/>
    <path d="M316.275,558.899C317.536,558.339 319.015,558.908 319.575,560.169C320.135,561.43 319.566,562.909 318.305,563.469C317.044,564.029 315.566,563.46 315.005,562.199C314.445,560.938 315.014,559.459 316.275,558.899Z" style="fill:none;stroke:black;stroke-width:0.83px;stroke-linejoin:miter;stroke-miterlimit:10;"/>
    <path d="M70.642,670.749C83.767,664.919 281.071,577.273 315.005,562.199" style="fill:none;stroke:black;stroke-width:0.83px;"/>
    <rect x="189.956" y="71.76" width="50.618" height="20" style="fill:white;" class="overlay"/>
    <text x="195.786px" y="82.934px" style="font-family:'ArialMT', 'Arial', sans-serif;font-size:8.333px;">interaction</text>
    <rect x="484.15" y="69.76" width="51.805" height="17" style="fill:white;" class="overlay"/>
    <rect x="345.276" y="149.76" width="36.799" height="14.144" style="fill:white;" class="overlay"/>
    <rect x="342.631" y="437.102" width="37.324" height="17.797" style="fill:white;" class="overlay"/>
    <rect x="421.956" y="428.398" width="50" height="13.602" style="fill:white;" class="overlay"/>
    <rect x="589.956" y="480" width="45" height="27.5" style="fill:white;" class="overlay"/>
    <rect x="169.956" y="552.5" width="45.044" height="25" style="fill:white;" class="overlay"/>
    <rect x="179.956" y="450" width="51.113" height="22.715" style="fill:white;" class="overlay"/>
    <text x="347.522px" y="158.344px" style="font-family:'ArialMT', 'Arial', sans-serif;font-size:8.333px;">upload</text>
    <rect x="345.276" y="287.928" width="36.799" height="14.144" style="fill:white;" class="overlay"/>
    <text x="351.929px" y="296.512px" style="font-family:'ArialMT', 'Arial', sans-serif;font-size:8.333px;">train</text>
    <text x="433.025px" y="438.349px" style="font-family:'ArialMT', 'Arial', sans-serif;font-size:8.333px;">stream</text>
    <text x="347.384px" y="447.005px" style="font-family:'ArialMT', 'Arial', sans-serif;font-size:8.333px;">ratings</text>
    <text x="183.493px" y="468px" style="font-family:'ArialMT', 'Arial', sans-serif;font-size:8.333px;">visualisation</text>
    <text x="172.106px" y="567.934px" style="font-family:'ArialMT', 'Arial', sans-serif;font-size:8.333px;">modulation</text>
    <text x="592.081px" y="492.934px" style="font-family:'ArialMT', 'Arial', sans-serif;font-size:8.333px;">interaction</text>
    <text x="488.175px" y="82.934px" style="font-family:'ArialMT', 'Arial', sans-serif;font-size:8.333px;">instructions</text>
    <path d="M406.046,503.979L400.749,508.179L406.663,511.454" style="fill:none;stroke:black;stroke-width:0.83px;stroke-linejoin:miter;stroke-miterlimit:10;"/>
    <path d="M493.293,496.787L499.207,500.062L493.909,504.261" style="fill:none;stroke:black;stroke-width:0.83px;stroke-linejoin:miter;stroke-miterlimit:10;"/>
    <path d="M400.749,508.179C409.414,507.464 490.542,500.776 499.207,500.062" style="fill:none;stroke:black;stroke-width:0.83px;"/>
    <rect x="429.956" y="492.281" width="49" height="35" style="fill:white;" class="overlay"/>
    <text x="433.788px" y="505.965px" style="font-family:'ArialMT', 'Arial', sans-serif;font-size:8.333px;">instructions</text>
</svg>
